# Blender v2.80 (sub 75) OBJ File: 'externalWallsScenario1.blend'
# www.blender.org
mtllib externalWallsScenario1.mtl
o externalWalls_Cube
v 1.500000 -1.000000 -6.000000
v 1.085786 0.000000 5.000000
v 1.500000 -1.000000 6.000000
v 1.085786 0.000000 -5.000000
v -1.500000 -1.000000 -6.000000
v -1.085786 0.000000 5.000000
v -1.500000 -1.000000 6.000000
v -1.085786 0.000000 -5.000000
v -2.500000 -1.000000 5.000000
v 1.500000 0.000000 4.585786
v -1.500000 0.000000 4.585786
v 2.500000 -1.000000 5.000000
v 1.500000 -1.000000 5.000000
v -1.500000 -1.000000 5.000000
v -1.500000 0.000000 -4.585786
v 2.500000 -1.000000 -5.000000
v -2.500000 -1.000000 -5.000000
v 1.500000 0.000000 -4.585786
v 1.500000 -1.000000 -5.000000
v -1.500000 -1.000000 -5.000000
v 2.500000 5.000000 5.000000
v 1.500000 5.000000 6.000000
v -1.500000 5.000000 -6.000000
v 1.500000 5.000000 -6.000000
v -1.500000 5.000000 6.000000
v -2.500000 5.000000 -5.000000
v 2.500000 5.000000 -5.000000
v -2.500000 5.000000 5.000000
v 1.500000 5.000000 4.585786
v 1.085786 5.000000 5.000000
v -1.085786 5.000000 -5.000000
v 1.085786 5.000000 -5.000000
v -1.085786 5.000000 5.000000
v -1.500000 5.000000 -4.585786
v 1.500000 5.000000 -4.585786
v -1.500000 5.000000 4.585786
vt 0.625000 0.500000
vt 0.875000 0.500000
vt 0.875000 0.750000
vt 0.625000 0.750000
vt 0.625000 1.000000
vt 0.625000 1.000000
vt 0.625000 1.000000
vt 0.125000 0.500000
vt 0.375000 0.500000
vt 0.375000 0.750000
vt 0.125000 0.750000
vt 0.375000 0.250000
vt 0.625000 0.250000
vt 0.625000 0.500000
vt 0.375000 0.500000
vt 0.375000 1.000000
vt 0.375000 1.000000
vt 0.375000 1.000000
vt 0.375000 0.750000
vt 0.625000 0.750000
vt 0.375000 0.750000
vt 0.625000 0.750000
vt 0.625000 0.500000
vt 0.375000 0.500000
vt 0.625000 0.750000
vt 0.486638 0.572191
vt 0.565510 0.591218
vt 0.683109 0.632823
vt 0.743960 0.610043
vt 0.686545 0.651062
vt 0.607673 0.512346
vt 0.606360 0.495222
vt 0.545508 0.472442
vt 0.375000 0.750000
vt 0.683109 0.632823
vt 0.743960 0.610043
vt 0.545508 0.472442
vt 0.486638 0.572191
vt 0.565510 0.591218
vt 0.686545 0.651062
vt 0.607673 0.512346
vt 0.606360 0.495222
vn 0.0000 0.0000 -1.0000
vn 0.0000 -1.0000 0.0000
vn 1.0000 0.0000 0.0000
vn 0.0000 0.0000 1.0000
vn -0.7071 0.0000 -0.7071
vn -0.7071 0.0000 0.7071
vn 0.0000 1.0000 0.0000
vn -1.0000 0.0000 0.0000
vn 0.7071 0.0000 -0.7071
vn 0.7071 0.0000 0.7071
usemtl Material
s off
f 5/1/1 23/2/1 24/3/1 1/4/1
f 13/5/2 12/6/2 3/7/2
f 16/8/3 27/9/3 21/10/3 12/11/3
f 3/12/4 22/13/4 25/14/4 7/15/4
f 14/16/2 13/5/2 3/7/2 7/17/2
f 9/18/2 14/16/2 7/17/2
f 17/19/5 26/20/5 23/2/5 5/1/5
f 17/19/2 20/21/2 14/16/2 9/18/2
f 20/21/2 19/22/2 13/5/2 14/16/2
f 7/15/6 25/14/6 28/23/6 9/24/6
f 19/22/2 16/25/2 12/6/2 13/5/2
f 10/26/7 18/27/7 4/28/7 8/29/7 15/30/7 11/31/7 6/32/7 2/33/7
f 19/22/2 1/4/2 16/25/2
f 9/24/8 28/23/8 26/20/8 17/19/8
f 5/34/2 1/4/2 19/22/2 20/21/2
f 5/34/2 20/21/2 17/19/2
f 1/4/9 24/3/9 27/9/9 16/8/9
f 8/29/4 4/28/4 32/35/4 31/36/4
f 10/26/5 2/33/5 30/37/5 29/38/5
f 4/28/6 18/27/6 35/39/6 32/35/6
f 11/31/3 15/30/3 34/40/3 36/41/3
f 6/32/9 11/31/9 36/41/9 33/42/9
f 18/27/8 10/26/8 29/38/8 35/39/8
f 29/38/7 30/37/7 22/13/7 21/10/7
f 31/36/7 32/35/7 24/3/7 23/2/7
f 30/37/7 33/42/7 25/14/7 22/13/7
f 34/40/7 31/36/7 23/2/7 26/20/7
f 35/39/7 29/38/7 21/10/7 27/9/7
f 33/42/7 36/41/7 28/23/7 25/14/7
f 36/41/7 34/40/7 26/20/7 28/23/7
f 32/35/7 35/39/7 27/9/7 24/3/7
f 2/33/1 6/32/1 33/42/1 30/37/1
f 15/30/10 8/29/10 31/36/10 34/40/10
f 12/11/10 21/10/10 22/13/10 3/12/10
