# Blender v2.81 (sub 16) OBJ File: 'meditation7.blend'
# www.blender.org
mtllib meditatingGuyLowerBodyCollider.mtl
o MeditatingGuyLowerBodyCollider_Cube
v -0.422271 0.000000 0.316240
v -0.422271 0.127080 0.316240
v -0.147369 0.000000 -0.356083
v -0.147369 0.302067 -0.441890
v 0.316062 0.000000 0.484533
v 0.316062 0.193044 0.484533
v 0.147369 0.000000 -0.376969
v 0.147369 0.302067 -0.446843
v -0.322696 0.000000 -0.037464
v -0.408377 0.275192 0.190542
v 0.387322 0.000000 0.074394
v 0.366457 0.267452 0.194481
v -0.115920 0.402142 -0.401266
v 0.118469 0.402142 -0.406219
v -0.246969 0.346848 0.083248
v 0.234215 0.330203 0.077586
v -0.358470 0.289850 -0.287779
v 0.297700 0.000000 -0.224980
v -0.268897 0.000000 -0.243588
v 0.368122 0.289845 -0.265218
v -0.336113 0.382619 -0.285695
v 0.313256 0.376742 -0.280209
vt 0.625000 0.250000
vt 0.375000 0.500000
vt 0.375000 0.250000
vt 0.625000 0.661600
vt 0.375000 0.750000
vt 0.375000 0.625000
vt 0.625000 1.000000
vt 0.375000 1.000000
vt 0.125000 0.625000
vt 0.125000 0.750000
vt 0.875000 0.661600
vt 0.625000 0.750000
vt 0.625000 0.192944
vt 0.375000 0.205866
vt 0.625000 0.125000
vt 0.625000 0.205866
vt 0.375000 0.544134
vt 0.125000 0.544134
vt 0.625000 0.000000
vt 0.375000 0.125000
vt 0.375000 0.000000
vt 0.625000 0.557056
vt 0.625000 0.544134
vt 0.875000 0.625000
vt 0.625000 0.625000
vt 0.625000 0.500000
vt 0.625000 0.250000
vt 0.625000 0.500000
vt 0.875000 0.500000
vt 0.125000 0.500000
vt 0.875000 0.750000
vt 0.625000 0.088400
vt 0.875000 0.544134
vn -0.0680 -0.2726 -0.9597
vn 0.9852 0.0000 0.1712
vn -0.2222 0.0000 0.9750
vn 0.0000 -1.0000 0.0000
vn 0.0084 0.9682 0.2498
vn -0.6466 -0.3063 -0.6986
vn -0.9427 0.2216 0.2493
vn -0.9626 0.0000 -0.2710
vn 0.9243 -0.2630 -0.2767
vn 0.0359 0.9900 0.1367
vn 0.0054 0.8278 0.5610
vn 0.6213 0.2651 -0.7373
vn -0.0196 0.3712 -0.9284
vn 0.3947 0.9177 0.0461
vn 0.0040 0.9815 0.1916
vn 0.6863 -0.2610 -0.6788
vn -0.4454 0.4534 -0.7720
vn -0.9168 -0.3198 -0.2393
vn -0.0164 -0.2253 -0.9741
vn -0.2244 0.6427 0.7325
vn -0.5659 -0.2253 -0.7931
vn -0.4142 0.9101 -0.0153
vn -0.9664 -0.1075 -0.2335
vn 0.9972 0.0745 0.0072
vn 0.0082 0.9955 0.0945
vn 0.0362 0.8970 0.4405
vn 0.5264 0.4459 -0.7239
vn -0.0155 0.3803 -0.9247
vn 0.7993 0.5474 0.2478
vn 0.0074 0.9836 0.1802
vn 0.6195 -0.1769 -0.7648
vn -0.5881 0.1595 -0.7929
vn -0.9711 -0.2130 -0.1078
usemtl None
s off
f 4/1/1 7/2/1 3/3/1
f 12/4/2 5/5/2 11/6/2
f 5/5/3 2/7/3 1/8/3
f 9/9/4 5/5/4 1/10/4
f 10/11/5 6/12/5 12/4/5
f 17/13/6 3/3/6 19/14/6
f 17/13/7 15/15/7 21/16/7
f 18/17/4 9/9/4 19/18/4
f 2/19/8 9/20/8 1/21/8
f 20/22/9 11/6/9 18/17/9
f 22/23/10 15/24/10 16/25/10
f 12/4/11 15/24/11 10/11/11
f 8/26/12 22/23/12 20/22/12
f 8/26/13 13/27/13 14/28/13
f 20/22/14 16/25/14 12/4/14
f 13/29/15 22/23/15 14/28/15
f 7/2/16 20/22/16 18/17/16
f 3/30/4 18/17/4 19/18/4
f 4/1/17 21/16/17 13/27/17
f 9/20/18 17/13/18 19/14/18
f 4/1/19 8/26/19 7/2/19
f 12/4/2 6/12/2 5/5/2
f 5/5/3 6/12/3 2/7/3
f 9/9/4 11/6/4 5/5/4
f 10/11/20 2/31/20 6/12/20
f 17/13/21 4/1/21 3/3/21
f 17/13/22 10/32/22 15/15/22
f 18/17/4 11/6/4 9/9/4
f 2/19/23 10/32/23 9/20/23
f 20/22/24 12/4/24 11/6/24
f 22/23/25 21/33/25 15/24/25
f 12/4/26 16/25/26 15/24/26
f 8/26/27 14/28/27 22/23/27
f 8/26/28 4/1/28 13/27/28
f 20/22/29 22/23/29 16/25/29
f 13/29/30 21/33/30 22/23/30
f 7/2/31 8/26/31 20/22/31
f 3/30/4 7/2/4 18/17/4
f 4/1/32 17/13/32 21/16/32
f 9/20/33 10/32/33 17/13/33
