# Blender v2.81 (sub 16) OBJ File: 'meditation7.blend'
# www.blender.org
mtllib meditatingGuyUpperBodyCollider.mtl
o MeditatingGuyUpperBodyCollider_Cube.003
v -0.328439 0.318636 -0.157209
v -0.264739 0.639384 -0.157209
v -0.328439 0.318636 -0.328169
v -0.264739 0.639384 -0.328169
v 0.328439 0.318636 -0.157209
v 0.264739 0.639384 -0.157209
v 0.328439 0.318636 -0.328169
v 0.264739 0.639384 -0.328169
v 0.088246 0.318636 -0.415641
v -0.088246 0.318636 -0.415641
v -0.088246 0.807792 -0.272754
v 0.088246 0.807792 -0.272754
v -0.088246 0.318636 -0.144541
v 0.088246 0.318636 -0.144541
v 0.088246 0.723340 -0.143509
v -0.088246 0.723340 -0.143509
v 0.088246 0.652562 -0.396576
v -0.088246 0.652562 -0.396576
v -0.088246 1.022689 -0.274751
v 0.088246 1.022689 -0.274751
v 0.088246 1.034252 -0.116597
v -0.088246 1.034252 -0.116597
v 0.039216 0.758132 -0.043187
v -0.039216 0.758132 -0.043187
vt 0.375000 0.000000
vt 0.625000 0.000000
vt 0.625000 0.250000
vt 0.375000 0.250000
vt 0.375000 0.416667
vt 0.500000 0.416667
vt 0.625000 0.500000
vt 0.375000 0.500000
vt 0.625000 0.750000
vt 0.375000 0.750000
vt 0.375000 0.916667
vt 0.625000 0.916667
vt 0.625000 1.000000
vt 0.375000 1.000000
vt 0.291667 0.500000
vt 0.291667 0.750000
vt 0.791667 0.500000
vt 0.875000 0.500000
vt 0.875000 0.750000
vt 0.791667 0.750000
vt 0.708333 0.500000
vt 0.708333 0.750000
vt 0.791667 0.750000
vt 0.791667 0.500000
vt 0.125000 0.500000
vt 0.208333 0.500000
vt 0.208333 0.750000
vt 0.125000 0.750000
vt 0.625000 0.833333
vt 0.375000 0.833333
vt 0.500000 0.333333
vt 0.375000 0.333333
vt 0.708333 0.500000
vt 0.708333 0.750000
vt 0.625000 0.333333
vt 0.625000 0.416667
vt 0.625000 0.833333
vt 0.625000 0.916667
vt 0.625000 0.333333
vt 0.625000 0.416667
vt 0.708333 0.750000
vt 0.791667 0.750000
vn -0.9808 0.1948 0.0000
vn 0.3514 0.0614 -0.9342
vn 0.9808 0.1948 0.0000
vn -0.0640 0.0042 0.9979
vn 0.0000 -1.0000 0.0000
vn -0.5955 0.7733 0.2176
vn 0.5955 0.7733 0.2176
vn -1.0000 0.0000 0.0000
vn 0.0640 0.0042 0.9979
vn 0.0000 -0.0026 1.0000
vn -0.3514 0.0614 -0.9342
vn 0.0000 0.0570 -0.9984
vn 0.0000 0.9973 -0.0729
vn 0.0000 0.6236 -0.7818
vn 0.3300 0.5887 -0.7380
vn -0.3300 0.5887 -0.7380
vn 0.0000 -0.9448 0.3277
vn 0.0000 -0.0093 -1.0000
vn 1.0000 0.0000 0.0000
vn 0.8924 -0.0389 0.4496
vn -0.8924 -0.0389 0.4496
vn 0.0000 0.2569 0.9664
usemtl None
s off
f 1/1/1 2/2/1 4/3/1 3/4/1
f 9/5/2 17/6/2 8/7/2 7/8/2
f 7/8/3 8/7/3 6/9/3 5/10/3
f 13/11/4 16/12/4 2/13/4 1/14/4
f 9/15/5 7/8/5 5/10/5 14/16/5
f 11/17/6 4/18/6 2/19/6 16/20/6
f 8/7/7 12/21/7 15/22/7 6/9/7
f 11/17/8 16/20/8 22/23/8 19/24/8
f 3/25/5 10/26/5 13/27/5 1/28/5
f 10/26/5 9/15/5 14/16/5 13/27/5
f 5/10/9 6/9/9 15/29/9 14/30/9
f 14/30/10 15/29/10 16/12/10 13/11/10
f 3/4/11 4/3/11 18/31/11 10/32/11
f 10/32/12 18/31/12 17/6/12 9/5/12
f 20/33/13 19/24/13 22/23/13 21/34/13
f 17/6/14 18/31/14 11/35/14 12/36/14
f 8/7/15 17/6/15 12/36/15
f 18/31/16 4/3/16 11/35/16
f 16/12/17 15/29/17 23/37/17 24/38/17
f 12/36/18 11/35/18 19/39/18 20/40/18
f 15/22/19 12/21/19 20/33/19 21/34/19
f 15/22/20 21/34/20 23/41/20
f 22/23/21 16/20/21 24/42/21
f 21/34/22 22/23/22 24/42/22 23/41/22
